<?xml version="1.0" standalone="yes"?>

<svg version="1.1" viewBox="0.0 0.0 702.2204724409448 697.1994750656168" fill="none" stroke="none" stroke-linecap="square" stroke-miterlimit="10" xmlns="http://www.w3.org/2000/svg" xmlns:xlink="http://www.w3.org/1999/xlink"><clipPath id="p.0"><path d="m0 0l702.22046 0l0 697.19946l-702.22046 0l0 -697.19946z" clip-rule="nonzero"></path></clipPath><g clip-path="url(#p.0)"><path fill="#000000" fill-opacity="0.0" d="m0 0l702.22046 0l0 697.19946l-702.22046 0z" fill-rule="evenodd"></path><path fill="#cccccc" d="m29.583937 348.59595l139.27559 -278.55106l364.50394 0l139.27557 278.55106l-139.27557 278.55103l-364.50394 0z" fill-rule="evenodd"></path><path stroke="#999999" stroke-width="24.0" stroke-linejoin="round" stroke-linecap="butt" d="m29.583937 348.59595l139.27559 -278.55106l364.50394 0l139.27557 278.55106l-139.27557 278.55103l-364.50394 0z" fill-rule="evenodd"></path><path fill="#000000" fill-opacity="0.0" d="m152.71654 18.897837l396.8189 0l0 659.4016l-396.8189 0z" fill-rule="evenodd"></path><path fill="#434343" d="m489.37277 416.53845q-5.71875 60.640625 -44.765625 94.609375q-39.03125 33.953125 -103.828125 33.953125q-45.296875 0 -79.78125 -21.46875q-34.48436 -21.46875 -53.218735 -61.03125q-18.734375 -39.5625 -19.515625 -91.875l0 -35.390625q0 -53.609375 19.0 -94.468735q19.0 -40.859375 54.51561 -62.984375q35.53125 -22.125 82.109375 -22.125q62.734375 0 100.984375 34.09375q38.25 34.09375 44.5 96.29686l-65.578125 0q-4.6875 -40.85936 -23.8125 -58.937485q-19.125 -18.09375 -56.09375 -18.09375q-42.9375 0 -65.96875 31.359375q-23.031235 31.35936 -23.54686 91.999985l0 33.578125q0 61.40625 21.98436 93.6875q22.0 32.265625 64.421875 32.265625q38.765625 0 58.28125 -17.4375q19.53125 -17.4375 24.734375 -58.03125l65.578125 0z" fill-rule="nonzero"></path></g></svg>

